<mxfile host="Electron" modified="2024-05-28T01:41:07.672Z" agent="Mozilla/5.0 (Macintosh; Intel Mac OS X 10.15; rv:126.0) Gecko/20100101 Firefox/126.0" etag="0dj7441fbgv7sIQVxuCO" version="21.7.4" type="device">
  <diagram name="Page-1" id="NX638GsAWFpG7GuTiTAv">
    <mxGraphModel dx="1564" dy="1492" grid="1" gridSize="10" guides="1" tooltips="1" connect="1" arrows="1" fold="1" page="1" pageScale="1" pageWidth="2339" pageHeight="3300" math="0" shadow="0">
      <root>
        <mxCell id="0" />
        <mxCell id="1" parent="0" />
        <mxCell id="hI_ugBCYkl9Iv8uWBS_N-1" value="AWS Cloud" style="points=[[0,0],[0.25,0],[0.5,0],[0.75,0],[1,0],[1,0.25],[1,0.5],[1,0.75],[1,1],[0.75,1],[0.5,1],[0.25,1],[0,1],[0,0.75],[0,0.5],[0,0.25]];outlineConnect=0;gradientColor=none;html=1;whiteSpace=wrap;fontSize=12;fontStyle=0;container=1;pointerEvents=0;collapsible=0;recursiveResize=0;shape=mxgraph.aws4.group;grIcon=mxgraph.aws4.group_aws_cloud_alt;strokeColor=#232F3E;fillColor=none;verticalAlign=top;align=left;spacingLeft=30;fontColor=#232F3E;dashed=0;" vertex="1" parent="1">
          <mxGeometry x="560" y="360" width="760" height="920" as="geometry" />
        </mxCell>
        <mxCell id="hI_ugBCYkl9Iv8uWBS_N-2" value="Region" style="points=[[0,0],[0.25,0],[0.5,0],[0.75,0],[1,0],[1,0.25],[1,0.5],[1,0.75],[1,1],[0.75,1],[0.5,1],[0.25,1],[0,1],[0,0.75],[0,0.5],[0,0.25]];outlineConnect=0;gradientColor=none;html=1;whiteSpace=wrap;fontSize=12;fontStyle=0;container=1;pointerEvents=0;collapsible=0;recursiveResize=0;shape=mxgraph.aws4.group;grIcon=mxgraph.aws4.group_region;strokeColor=#147EBA;fillColor=none;verticalAlign=top;align=left;spacingLeft=30;fontColor=#147EBA;dashed=1;" vertex="1" parent="hI_ugBCYkl9Iv8uWBS_N-1">
          <mxGeometry x="40" y="40" width="680" height="840" as="geometry" />
        </mxCell>
        <mxCell id="hI_ugBCYkl9Iv8uWBS_N-3" value="Amazon Verified Permissions&lt;br&gt;Authorization" style="sketch=0;points=[[0,0,0],[0.25,0,0],[0.5,0,0],[0.75,0,0],[1,0,0],[0,1,0],[0.25,1,0],[0.5,1,0],[0.75,1,0],[1,1,0],[0,0.25,0],[0,0.5,0],[0,0.75,0],[1,0.25,0],[1,0.5,0],[1,0.75,0]];outlineConnect=0;fontColor=#232F3E;fillColor=#DD344C;strokeColor=#ffffff;dashed=0;verticalLabelPosition=bottom;verticalAlign=top;align=center;html=1;fontSize=12;fontStyle=0;aspect=fixed;shape=mxgraph.aws4.resourceIcon;resIcon=mxgraph.aws4.verified_permissions;" vertex="1" parent="hI_ugBCYkl9Iv8uWBS_N-2">
          <mxGeometry x="40" y="40" width="78" height="78" as="geometry" />
        </mxCell>
        <mxCell id="hI_ugBCYkl9Iv8uWBS_N-18" value="authorize user" style="edgeStyle=orthogonalEdgeStyle;rounded=0;orthogonalLoop=1;jettySize=auto;html=1;" edge="1" parent="hI_ugBCYkl9Iv8uWBS_N-2" source="hI_ugBCYkl9Iv8uWBS_N-4" target="hI_ugBCYkl9Iv8uWBS_N-3">
          <mxGeometry relative="1" as="geometry" />
        </mxCell>
        <mxCell id="hI_ugBCYkl9Iv8uWBS_N-20" value="authenticate user" style="edgeStyle=orthogonalEdgeStyle;rounded=0;orthogonalLoop=1;jettySize=auto;html=1;" edge="1" parent="hI_ugBCYkl9Iv8uWBS_N-2" source="hI_ugBCYkl9Iv8uWBS_N-4" target="hI_ugBCYkl9Iv8uWBS_N-9">
          <mxGeometry relative="1" as="geometry" />
        </mxCell>
        <mxCell id="hI_ugBCYkl9Iv8uWBS_N-21" style="edgeStyle=orthogonalEdgeStyle;rounded=0;orthogonalLoop=1;jettySize=auto;html=1;" edge="1" parent="hI_ugBCYkl9Iv8uWBS_N-2" source="hI_ugBCYkl9Iv8uWBS_N-4" target="hI_ugBCYkl9Iv8uWBS_N-10">
          <mxGeometry relative="1" as="geometry" />
        </mxCell>
        <mxCell id="hI_ugBCYkl9Iv8uWBS_N-4" value="Amazon API Gateway&lt;br&gt;Notifications API" style="sketch=0;points=[[0,0,0],[0.25,0,0],[0.5,0,0],[0.75,0,0],[1,0,0],[0,1,0],[0.25,1,0],[0.5,1,0],[0.75,1,0],[1,1,0],[0,0.25,0],[0,0.5,0],[0,0.75,0],[1,0.25,0],[1,0.5,0],[1,0.75,0]];outlineConnect=0;fontColor=#232F3E;fillColor=#E7157B;strokeColor=#ffffff;dashed=0;verticalLabelPosition=bottom;verticalAlign=top;align=center;html=1;fontSize=12;fontStyle=0;aspect=fixed;shape=mxgraph.aws4.resourceIcon;resIcon=mxgraph.aws4.api_gateway;" vertex="1" parent="hI_ugBCYkl9Iv8uWBS_N-2">
          <mxGeometry x="40" y="238" width="78" height="78" as="geometry" />
        </mxCell>
        <mxCell id="hI_ugBCYkl9Iv8uWBS_N-9" value="Amazon Cognito&lt;br&gt;Authentication" style="sketch=0;points=[[0,0,0],[0.25,0,0],[0.5,0,0],[0.75,0,0],[1,0,0],[0,1,0],[0.25,1,0],[0.5,1,0],[0.75,1,0],[1,1,0],[0,0.25,0],[0,0.5,0],[0,0.75,0],[1,0.25,0],[1,0.5,0],[1,0.75,0]];outlineConnect=0;fontColor=#232F3E;fillColor=#DD344C;strokeColor=#ffffff;dashed=0;verticalLabelPosition=bottom;verticalAlign=top;align=center;html=1;fontSize=12;fontStyle=0;aspect=fixed;shape=mxgraph.aws4.resourceIcon;resIcon=mxgraph.aws4.cognito;" vertex="1" parent="hI_ugBCYkl9Iv8uWBS_N-2">
          <mxGeometry x="40" y="440" width="78" height="78" as="geometry" />
        </mxCell>
        <mxCell id="hI_ugBCYkl9Iv8uWBS_N-22" style="edgeStyle=orthogonalEdgeStyle;rounded=0;orthogonalLoop=1;jettySize=auto;html=1;" edge="1" parent="hI_ugBCYkl9Iv8uWBS_N-2" source="hI_ugBCYkl9Iv8uWBS_N-10" target="hI_ugBCYkl9Iv8uWBS_N-11">
          <mxGeometry relative="1" as="geometry" />
        </mxCell>
        <mxCell id="hI_ugBCYkl9Iv8uWBS_N-23" style="edgeStyle=orthogonalEdgeStyle;rounded=0;orthogonalLoop=1;jettySize=auto;html=1;" edge="1" parent="hI_ugBCYkl9Iv8uWBS_N-2" source="hI_ugBCYkl9Iv8uWBS_N-10" target="hI_ugBCYkl9Iv8uWBS_N-12">
          <mxGeometry relative="1" as="geometry" />
        </mxCell>
        <mxCell id="hI_ugBCYkl9Iv8uWBS_N-10" value="AWS Lambda&lt;br&gt;Notifications API" style="sketch=0;points=[[0,0,0],[0.25,0,0],[0.5,0,0],[0.75,0,0],[1,0,0],[0,1,0],[0.25,1,0],[0.5,1,0],[0.75,1,0],[1,1,0],[0,0.25,0],[0,0.5,0],[0,0.75,0],[1,0.25,0],[1,0.5,0],[1,0.75,0]];outlineConnect=0;fontColor=#232F3E;fillColor=#ED7100;strokeColor=#ffffff;dashed=0;verticalLabelPosition=bottom;verticalAlign=top;align=center;html=1;fontSize=12;fontStyle=0;aspect=fixed;shape=mxgraph.aws4.resourceIcon;resIcon=mxgraph.aws4.lambda;" vertex="1" parent="hI_ugBCYkl9Iv8uWBS_N-2">
          <mxGeometry x="278" y="238" width="78" height="78" as="geometry" />
        </mxCell>
        <mxCell id="hI_ugBCYkl9Iv8uWBS_N-11" value="Amazon DynamoDB&lt;br&gt;Notifications" style="sketch=0;points=[[0,0,0],[0.25,0,0],[0.5,0,0],[0.75,0,0],[1,0,0],[0,1,0],[0.25,1,0],[0.5,1,0],[0.75,1,0],[1,1,0],[0,0.25,0],[0,0.5,0],[0,0.75,0],[1,0.25,0],[1,0.5,0],[1,0.75,0]];outlineConnect=0;fontColor=#232F3E;fillColor=#C925D1;strokeColor=#ffffff;dashed=0;verticalLabelPosition=bottom;verticalAlign=top;align=center;html=1;fontSize=12;fontStyle=0;aspect=fixed;shape=mxgraph.aws4.resourceIcon;resIcon=mxgraph.aws4.dynamodb;" vertex="1" parent="hI_ugBCYkl9Iv8uWBS_N-2">
          <mxGeometry x="520" y="238" width="78" height="78" as="geometry" />
        </mxCell>
        <mxCell id="hI_ugBCYkl9Iv8uWBS_N-25" style="edgeStyle=orthogonalEdgeStyle;rounded=0;orthogonalLoop=1;jettySize=auto;html=1;" edge="1" parent="hI_ugBCYkl9Iv8uWBS_N-2" source="hI_ugBCYkl9Iv8uWBS_N-12" target="hI_ugBCYkl9Iv8uWBS_N-14">
          <mxGeometry relative="1" as="geometry" />
        </mxCell>
        <mxCell id="hI_ugBCYkl9Iv8uWBS_N-12" value="Amazon EventBridge&lt;br&gt;Agie Events" style="sketch=0;points=[[0,0,0],[0.25,0,0],[0.5,0,0],[0.75,0,0],[1,0,0],[0,1,0],[0.25,1,0],[0.5,1,0],[0.75,1,0],[1,1,0],[0,0.25,0],[0,0.5,0],[0,0.75,0],[1,0.25,0],[1,0.5,0],[1,0.75,0]];outlineConnect=0;fontColor=#232F3E;fillColor=#E7157B;strokeColor=#ffffff;dashed=0;verticalLabelPosition=bottom;verticalAlign=top;align=center;html=1;fontSize=12;fontStyle=0;aspect=fixed;shape=mxgraph.aws4.resourceIcon;resIcon=mxgraph.aws4.eventbridge;" vertex="1" parent="hI_ugBCYkl9Iv8uWBS_N-2">
          <mxGeometry x="278" y="440" width="78" height="78" as="geometry" />
        </mxCell>
        <mxCell id="hI_ugBCYkl9Iv8uWBS_N-26" style="edgeStyle=orthogonalEdgeStyle;rounded=0;orthogonalLoop=1;jettySize=auto;html=1;" edge="1" parent="hI_ugBCYkl9Iv8uWBS_N-2" source="hI_ugBCYkl9Iv8uWBS_N-14" target="hI_ugBCYkl9Iv8uWBS_N-15">
          <mxGeometry relative="1" as="geometry" />
        </mxCell>
        <mxCell id="hI_ugBCYkl9Iv8uWBS_N-14" value="AWS Lambda&lt;br&gt;Engine Module Listener" style="sketch=0;points=[[0,0,0],[0.25,0,0],[0.5,0,0],[0.75,0,0],[1,0,0],[0,1,0],[0.25,1,0],[0.5,1,0],[0.75,1,0],[1,1,0],[0,0.25,0],[0,0.5,0],[0,0.75,0],[1,0.25,0],[1,0.5,0],[1,0.75,0]];outlineConnect=0;fontColor=#232F3E;fillColor=#ED7100;strokeColor=#ffffff;dashed=0;verticalLabelPosition=bottom;verticalAlign=top;align=center;html=1;fontSize=12;fontStyle=0;aspect=fixed;shape=mxgraph.aws4.resourceIcon;resIcon=mxgraph.aws4.lambda;" vertex="1" parent="hI_ugBCYkl9Iv8uWBS_N-2">
          <mxGeometry x="278" y="640" width="78" height="78" as="geometry" />
        </mxCell>
        <mxCell id="hI_ugBCYkl9Iv8uWBS_N-15" value="Amazon Simple Notification Service&lt;br&gt;Agie Topics" style="sketch=0;points=[[0,0,0],[0.25,0,0],[0.5,0,0],[0.75,0,0],[1,0,0],[0,1,0],[0.25,1,0],[0.5,1,0],[0.75,1,0],[1,1,0],[0,0.25,0],[0,0.5,0],[0,0.75,0],[1,0.25,0],[1,0.5,0],[1,0.75,0]];outlineConnect=0;fontColor=#232F3E;fillColor=#E7157B;strokeColor=#ffffff;dashed=0;verticalLabelPosition=bottom;verticalAlign=top;align=center;html=1;fontSize=12;fontStyle=0;aspect=fixed;shape=mxgraph.aws4.resourceIcon;resIcon=mxgraph.aws4.sns;" vertex="1" parent="hI_ugBCYkl9Iv8uWBS_N-2">
          <mxGeometry x="40" y="640" width="78" height="78" as="geometry" />
        </mxCell>
        <mxCell id="hI_ugBCYkl9Iv8uWBS_N-24" value="publish engine events" style="edgeStyle=orthogonalEdgeStyle;rounded=0;orthogonalLoop=1;jettySize=auto;html=1;" edge="1" parent="hI_ugBCYkl9Iv8uWBS_N-2" source="hI_ugBCYkl9Iv8uWBS_N-16" target="hI_ugBCYkl9Iv8uWBS_N-12">
          <mxGeometry relative="1" as="geometry" />
        </mxCell>
        <mxCell id="hI_ugBCYkl9Iv8uWBS_N-16" value="Engine&lt;br&gt;Module" style="shape=module;align=left;spacingLeft=20;align=center;verticalAlign=top;whiteSpace=wrap;html=1;" vertex="1" parent="hI_ugBCYkl9Iv8uWBS_N-2">
          <mxGeometry x="520" y="454" width="100" height="50" as="geometry" />
        </mxCell>
        <mxCell id="hI_ugBCYkl9Iv8uWBS_N-19" value="API Access" style="edgeStyle=orthogonalEdgeStyle;rounded=0;orthogonalLoop=1;jettySize=auto;html=1;" edge="1" parent="1" source="hI_ugBCYkl9Iv8uWBS_N-13" target="hI_ugBCYkl9Iv8uWBS_N-4">
          <mxGeometry relative="1" as="geometry" />
        </mxCell>
        <mxCell id="hI_ugBCYkl9Iv8uWBS_N-13" value="Users" style="sketch=0;outlineConnect=0;gradientColor=none;fontColor=#545B64;strokeColor=none;fillColor=#879196;dashed=0;verticalLabelPosition=bottom;verticalAlign=top;align=center;html=1;fontSize=12;fontStyle=0;aspect=fixed;shape=mxgraph.aws4.illustration_users;pointerEvents=1" vertex="1" parent="1">
          <mxGeometry x="350" y="627" width="100" height="100" as="geometry" />
        </mxCell>
        <mxCell id="hI_ugBCYkl9Iv8uWBS_N-27" value="send notification" style="edgeStyle=orthogonalEdgeStyle;rounded=0;orthogonalLoop=1;jettySize=auto;html=1;" edge="1" parent="1" source="hI_ugBCYkl9Iv8uWBS_N-15" target="hI_ugBCYkl9Iv8uWBS_N-13">
          <mxGeometry relative="1" as="geometry" />
        </mxCell>
      </root>
    </mxGraphModel>
  </diagram>
</mxfile>
